<svg xmlns="http://www.w3.org/2000/svg" xmlns:xlink="http://www.w3.org/1999/xlink" version="1.1" width="1000" height="1000" viewBox="0 0 1000 1000" xml:space="preserve">
<desc>Created with Fabric.js 3.5.0</desc>
<defs>
</defs>
<rect x="0" y="0" width="100%" height="100%" fill="#ffffff"/>
<g transform="matrix(1.699 0 0 1.699 131.6526 372.2397)" id="392820">
<path style="stroke: none; stroke-width: 1; stroke-dasharray: none; stroke-linecap: butt; stroke-dashoffset: 0; stroke-linejoin: miter; stroke-miterlimit: 4; is-custom-font: none; font-file-url: none; fill: rgb(0,0,0); fill-rule: nonzero; opacity: 1;" transform=" translate(-122.824, -207.25)" d="m 160.82 131.26 h -75.992 v 151.98 h 75.992 z" stroke-linecap="round"/>
</g>
<g transform="matrix(1.699 0 0 1.699 260.7565 565.8957)" id="179446">
<path style="stroke: none; stroke-width: 1; stroke-dasharray: none; stroke-linecap: butt; stroke-dashoffset: 0; stroke-linejoin: miter; stroke-miterlimit: 4; is-custom-font: none; font-file-url: none; fill: rgb(0,0,0); fill-rule: nonzero; opacity: 1;" transform=" translate(-198.814, -321.236)" d="m 160.82 283.24 h 75.988 v 75.992 h -75.988 z" stroke-linecap="round"/>
</g>
<g transform="matrix(1.699 0 0 1.699 646.7266 243.1391)" id="46890">
<path style="stroke: none; stroke-width: 1; stroke-dasharray: none; stroke-linecap: butt; stroke-dashoffset: 0; stroke-linejoin: miter; stroke-miterlimit: 4; is-custom-font: none; font-file-url: none; fill: rgb(0,0,0); fill-rule: nonzero; opacity: 1;" transform=" translate(-425.9925, -131.262)" d="m 388.79 207.25 v -75.992 h 150.39 v -75.984 h -151.98 v 75.984 h -74.395 v 75.992 z" stroke-linecap="round"/>
</g>
<g transform="matrix(1.699 0 0 1.699 325.3117 178.5873)" id="929863">
<path style="stroke: none; stroke-width: 1; stroke-dasharray: none; stroke-linecap: butt; stroke-dashoffset: 0; stroke-linejoin: miter; stroke-miterlimit: 4; is-custom-font: none; font-file-url: none; fill: rgb(0,0,0); fill-rule: nonzero; opacity: 1;" transform=" translate(-236.81, -93.268)" d="m 312.8 131.26 v -75.984 h -151.98 v 75.984 z" stroke-linecap="round"/>
</g>
<g transform="matrix(1.699 0 0 1.699 903.5815 372.2397)" id="192544">
<path style="stroke: none; stroke-width: 1; stroke-dasharray: none; stroke-linecap: butt; stroke-dashoffset: 0; stroke-linejoin: miter; stroke-miterlimit: 4; is-custom-font: none; font-file-url: none; fill: rgb(0,0,0); fill-rule: nonzero; opacity: 1;" transform=" translate(-577.178, -207.25)" d="m 539.18 131.26 v 151.98 h 75.996 v -151.98 z" stroke-linecap="round"/>
</g>
<g transform="matrix(1.699 0 0 1.699 774.4742 565.8957)" id="804640">
<path style="stroke: none; stroke-width: 1; stroke-dasharray: none; stroke-linecap: butt; stroke-dashoffset: 0; stroke-linejoin: miter; stroke-miterlimit: 4; is-custom-font: none; font-file-url: none; fill: rgb(0,0,0); fill-rule: nonzero; opacity: 1;" transform=" translate(-501.186, -321.236)" d="m 463.19 283.24 h 75.992 v 75.992 h -75.992 z" stroke-linecap="round"/>
</g>
<g transform="matrix(1.699 0 0 1.699 517.6252 758.2109)" id="516330">
<path style="stroke: none; stroke-width: 1; stroke-dasharray: none; stroke-linecap: butt; stroke-dashoffset: 0; stroke-linejoin: miter; stroke-miterlimit: 4; is-custom-font: none; font-file-url: none; fill: rgb(0,0,0); fill-rule: nonzero; opacity: 1;" transform=" translate(-350.004, -434.431)" d="m 387.2 433.64 h -74.395 v -74.406 h -75.988 v 75.992 h 75.062 v 74.402 h 75.988 v -74.402 h 75.324 v -75.992 h -75.992 z" stroke-linecap="round"/>
</g>
</svg>